<?xml version="1.0" standalone="no"?>
<svg xmlns:xlink="http://www.w3.org/1999/xlink" id="wave" style="transform:rotate(0deg); transition: 0.3s" viewBox="0 0 1440 490" version="1.1" xmlns="http://www.w3.org/2000/svg"><defs><linearGradient id="sw-gradient-0" x1="0" x2="0" y1="1" y2="0"><stop stop-color="rgba(230, 39, 136, 1)" offset="0%"/><stop stop-color="rgba(235.79, 227.202, 231.563, 1)" offset="100%"/></linearGradient></defs><path style="transform:translate(0, 0px); opacity:1" fill="url(#sw-gradient-0)" d="M0,441L30,392C60,343,120,245,180,212.3C240,180,300,212,360,253.2C420,294,480,343,540,334.8C600,327,660,261,720,220.5C780,180,840,163,900,196C960,229,1020,310,1080,318.5C1140,327,1200,261,1260,269.5C1320,278,1380,359,1440,392C1500,425,1560,408,1620,375.7C1680,343,1740,294,1800,269.5C1860,245,1920,245,1980,269.5C2040,294,2100,343,2160,302.2C2220,261,2280,131,2340,81.7C2400,33,2460,65,2520,65.3C2580,65,2640,33,2700,49C2760,65,2820,131,2880,171.5C2940,212,3000,229,3060,236.8C3120,245,3180,245,3240,245C3300,245,3360,245,3420,261.3C3480,278,3540,310,3600,334.8C3660,359,3720,376,3780,351.2C3840,327,3900,261,3960,269.5C4020,278,4080,359,4140,392C4200,425,4260,408,4290,400.2L4320,392L4320,490L4290,490C4260,490,4200,490,4140,490C4080,490,4020,490,3960,490C3900,490,3840,490,3780,490C3720,490,3660,490,3600,490C3540,490,3480,490,3420,490C3360,490,3300,490,3240,490C3180,490,3120,490,3060,490C3000,490,2940,490,2880,490C2820,490,2760,490,2700,490C2640,490,2580,490,2520,490C2460,490,2400,490,2340,490C2280,490,2220,490,2160,490C2100,490,2040,490,1980,490C1920,490,1860,490,1800,490C1740,490,1680,490,1620,490C1560,490,1500,490,1440,490C1380,490,1320,490,1260,490C1200,490,1140,490,1080,490C1020,490,960,490,900,490C840,490,780,490,720,490C660,490,600,490,540,490C480,490,420,490,360,490C300,490,240,490,180,490C120,490,60,490,30,490L0,490Z"/><defs><linearGradient id="sw-gradient-1" x1="0" x2="0" y1="1" y2="0"><stop stop-color="rgba(230, 39, 136, 1)" offset="0%"/><stop stop-color="rgba(231.236, 208.452, 220.023, 1)" offset="100%"/></linearGradient></defs><path style="transform:translate(0, 50px); opacity:0.9" fill="url(#sw-gradient-1)" d="M0,0L30,73.5C60,147,120,294,180,294C240,294,300,147,360,73.5C420,0,480,0,540,24.5C600,49,660,98,720,138.8C780,180,840,212,900,187.8C960,163,1020,82,1080,114.3C1140,147,1200,294,1260,359.3C1320,425,1380,408,1440,359.3C1500,310,1560,229,1620,163.3C1680,98,1740,49,1800,49C1860,49,1920,98,1980,114.3C2040,131,2100,114,2160,130.7C2220,147,2280,196,2340,179.7C2400,163,2460,82,2520,98C2580,114,2640,229,2700,236.8C2760,245,2820,147,2880,122.5C2940,98,3000,147,3060,138.8C3120,131,3180,65,3240,32.7C3300,0,3360,0,3420,57.2C3480,114,3540,229,3600,253.2C3660,278,3720,212,3780,204.2C3840,196,3900,245,3960,294C4020,343,4080,392,4140,375.7C4200,359,4260,278,4290,236.8L4320,196L4320,490L4290,490C4260,490,4200,490,4140,490C4080,490,4020,490,3960,490C3900,490,3840,490,3780,490C3720,490,3660,490,3600,490C3540,490,3480,490,3420,490C3360,490,3300,490,3240,490C3180,490,3120,490,3060,490C3000,490,2940,490,2880,490C2820,490,2760,490,2700,490C2640,490,2580,490,2520,490C2460,490,2400,490,2340,490C2280,490,2220,490,2160,490C2100,490,2040,490,1980,490C1920,490,1860,490,1800,490C1740,490,1680,490,1620,490C1560,490,1500,490,1440,490C1380,490,1320,490,1260,490C1200,490,1140,490,1080,490C1020,490,960,490,900,490C840,490,780,490,720,490C660,490,600,490,540,490C480,490,420,490,360,490C300,490,240,490,180,490C120,490,60,490,30,490L0,490Z"/><defs><linearGradient id="sw-gradient-2" x1="0" x2="0" y1="1" y2="0"><stop stop-color="rgba(230, 39, 136, 1)" offset="0%"/><stop stop-color="rgba(233.513, 202.593, 218.296, 1)" offset="100%"/></linearGradient></defs><path style="transform:translate(0, 100px); opacity:0.8" fill="url(#sw-gradient-2)" d="M0,441L30,367.5C60,294,120,147,180,147C240,147,300,294,360,351.2C420,408,480,376,540,326.7C600,278,660,212,720,204.2C780,196,840,245,900,277.7C960,310,1020,327,1080,326.7C1140,327,1200,310,1260,326.7C1320,343,1380,392,1440,375.7C1500,359,1560,278,1620,261.3C1680,245,1740,294,1800,277.7C1860,261,1920,180,1980,122.5C2040,65,2100,33,2160,40.8C2220,49,2280,98,2340,122.5C2400,147,2460,147,2520,196C2580,245,2640,343,2700,318.5C2760,294,2820,147,2880,98C2940,49,3000,98,3060,171.5C3120,245,3180,343,3240,375.7C3300,408,3360,376,3420,334.8C3480,294,3540,245,3600,187.8C3660,131,3720,65,3780,32.7C3840,0,3900,0,3960,32.7C4020,65,4080,131,4140,163.3C4200,196,4260,196,4290,196L4320,196L4320,490L4290,490C4260,490,4200,490,4140,490C4080,490,4020,490,3960,490C3900,490,3840,490,3780,490C3720,490,3660,490,3600,490C3540,490,3480,490,3420,490C3360,490,3300,490,3240,490C3180,490,3120,490,3060,490C3000,490,2940,490,2880,490C2820,490,2760,490,2700,490C2640,490,2580,490,2520,490C2460,490,2400,490,2340,490C2280,490,2220,490,2160,490C2100,490,2040,490,1980,490C1920,490,1860,490,1800,490C1740,490,1680,490,1620,490C1560,490,1500,490,1440,490C1380,490,1320,490,1260,490C1200,490,1140,490,1080,490C1020,490,960,490,900,490C840,490,780,490,720,490C660,490,600,490,540,490C480,490,420,490,360,490C300,490,240,490,180,490C120,490,60,490,30,490L0,490Z"/></svg>